# xmcd
# Track frame offsets:
# 225
# 14696
# 30334
# 44023
# 56011
# 70622
# 82627
# 93842
# 105201
# 118331
# 132770
# 146079
#
# Disc length: 2153 seconds
# Revision: 0
# Processed by: cddbd v1.4PL0 Copyright (c) Steve Scherf et al.
# Submitted via: VisiTrax 2.9.5.180 - For more info visit www.synapsa.com
#
DISCID=9708660c
DTITLE=Frank Jansen - You're a phone call that I need to make
DYEAR=1900
DGENRE=
TTITLE0=You're a phone call that I need to amke
TTITLE1=You sure laid a hit on me
TTITLE2=I wish I'd never rorrowed annybody's angel
TTITLE3=I wish I could take back her tears
TTITLE4=The heart that you own
TTITLE5=The sound of closing doors
TTITLE6=Amarillo by morning
TTITLE7=Someone new to take your place
TTITLE8=Long lonesome moan
TTITLE9=Leave well enough alone
TTITLE10=The blame lies with me
TTITLE11=Drivin' your memory away
EXTD=
EXTT0=
EXTT1=
EXTT2=
EXTT3=
EXTT4=
EXTT5=
EXTT6=
EXTT7=
EXTT8=
EXTT9=
EXTT10=
EXTT11=
PLAYORDER=
